<svg id="svg" version="1.1" xmlns="http://www.w3.org/2000/svg" xmlns:xlink="http://www.w3.org/1999/xlink" width="400" height="400" viewBox="0, 0, 400,400"><g id="svgg"><path id="path0" d="M125.843 80.860 C 123.702 81.683,83.842 121.239,82.675 123.698 C 81.598 125.969,82.850 135.540,84.390 136.800 C 84.524 136.910,85.152 138.890,85.785 141.200 C 86.418 143.510,87.058 145.490,87.207 145.600 C 87.357 145.710,87.893 147.420,88.400 149.400 C 88.907 151.380,89.452 153.090,89.612 153.200 C 89.771 153.310,90.408 155.200,91.026 157.400 C 91.644 159.600,92.296 161.460,92.475 161.533 C 92.654 161.607,92.800 161.933,92.800 162.258 C 92.800 163.141,94.862 170.169,95.189 170.400 C 95.344 170.510,95.965 172.488,96.568 174.796 C 97.171 177.104,97.797 179.084,97.959 179.196 C 98.121 179.308,98.676 180.902,99.193 182.738 C 99.710 184.574,100.349 186.292,100.614 186.556 C 100.878 186.821,101.209 187.389,101.349 187.819 C 101.488 188.248,103.942 190.918,106.801 193.751 C 109.661 196.584,112.000 198.955,112.000 199.019 C 112.000 199.083,109.248 201.907,105.885 205.295 C 100.044 211.179,99.736 211.569,99.005 214.027 C 98.583 215.442,98.128 216.690,97.992 216.800 C 97.856 216.910,97.242 218.800,96.628 221.000 C 96.013 223.200,95.383 225.180,95.227 225.400 C 95.071 225.620,94.431 227.690,93.804 230.000 C 93.177 232.310,92.537 234.290,92.382 234.400 C 92.226 234.510,91.719 236.040,91.255 237.800 C 90.791 239.560,90.290 241.450,90.141 242.000 C 89.992 242.550,89.728 243.095,89.554 243.212 C 89.380 243.329,88.834 245.039,88.340 247.012 C 87.847 248.985,87.323 250.690,87.175 250.800 C 86.856 251.037,84.800 258.086,84.800 258.942 C 84.800 259.267,84.643 259.593,84.452 259.667 C 84.085 259.807,82.000 266.703,82.000 267.775 C 82.000 268.119,81.820 268.400,81.600 268.400 C 81.380 268.400,81.200 269.030,81.200 269.800 C 81.200 270.570,81.380 271.200,81.600 271.200 C 81.820 271.200,82.000 271.479,82.000 271.820 C 82.000 273.378,84.433 276.011,102.955 294.501 C 127.265 318.768,124.287 316.200,128.115 316.200 C 129.842 316.200,131.356 316.013,131.515 315.780 C 131.672 315.549,133.689 314.859,135.997 314.247 C 138.305 313.635,140.285 313.003,140.397 312.843 C 140.509 312.683,142.220 312.131,144.200 311.618 C 146.180 311.104,147.896 310.538,148.012 310.360 C 148.129 310.182,150.109 309.560,152.412 308.978 C 154.716 308.396,156.690 307.787,156.800 307.625 C 156.910 307.463,157.450 307.208,158.000 307.059 C 158.550 306.910,160.440 306.409,162.200 305.945 C 163.960 305.481,165.490 304.974,165.600 304.818 C 165.710 304.663,167.690 304.023,170.000 303.396 C 172.310 302.769,174.380 302.129,174.600 301.973 C 174.820 301.817,176.800 301.187,179.000 300.572 C 181.200 299.958,183.090 299.328,183.200 299.174 C 183.310 299.019,184.569 298.566,185.997 298.166 C 188.489 297.469,188.807 297.227,193.901 292.120 C 196.821 289.194,199.361 286.800,199.546 286.800 C 199.732 286.800,202.380 289.315,205.431 292.389 C 208.483 295.463,211.479 298.184,212.090 298.437 C 212.700 298.690,213.200 299.024,213.200 299.180 C 213.200 299.336,215.045 299.974,217.300 300.599 C 219.555 301.224,221.490 301.858,221.600 302.008 C 221.710 302.158,222.250 302.379,222.800 302.499 C 225.506 303.091,230.214 304.496,230.395 304.766 C 230.508 304.934,232.489 305.565,234.798 306.168 C 237.108 306.772,239.178 307.416,239.400 307.600 C 239.622 307.784,241.692 308.428,244.002 309.032 C 246.311 309.635,248.290 310.256,248.400 310.411 C 248.593 310.683,250.301 311.228,259.800 314.049 C 262.220 314.768,264.290 315.478,264.400 315.627 C 264.510 315.776,265.908 316.194,267.506 316.555 C 271.970 317.565,273.848 316.942,277.334 313.295 C 278.690 311.875,280.014 310.509,280.275 310.257 C 282.156 308.449,308.528 282.126,309.489 281.097 C 310.156 280.384,311.917 278.640,313.404 277.222 C 316.310 274.450,317.200 272.882,317.200 270.538 C 317.200 268.834,316.048 263.901,315.578 263.596 C 315.406 263.484,314.771 261.504,314.168 259.196 C 313.565 256.888,312.929 254.905,312.754 254.788 C 312.580 254.671,312.034 252.961,311.540 250.988 C 311.047 249.015,310.521 247.310,310.371 247.200 C 310.221 247.090,309.593 245.200,308.976 243.000 C 308.359 240.800,307.745 238.910,307.610 238.800 C 307.476 238.690,306.848 236.710,306.215 234.400 C 305.582 232.090,304.940 230.110,304.787 230.000 C 304.635 229.890,304.027 227.915,303.437 225.612 C 302.846 223.309,302.218 221.329,302.041 221.212 C 301.863 221.095,301.248 219.215,300.673 217.032 C 300.099 214.850,299.479 212.960,299.297 212.832 C 299.115 212.705,298.706 211.791,298.387 210.803 C 297.928 209.379,296.747 207.942,292.704 203.889 C 289.897 201.074,287.600 198.683,287.600 198.575 C 287.600 198.467,289.940 196.068,292.800 193.245 C 295.660 190.422,298.000 187.941,298.000 187.731 C 298.000 187.522,298.359 186.965,298.798 186.495 C 299.545 185.692,301.600 180.159,301.600 178.949 C 301.600 178.647,301.758 178.400,301.951 178.400 C 302.143 178.400,302.785 176.468,303.377 174.107 C 303.968 171.746,304.595 169.721,304.768 169.607 C 304.942 169.493,305.578 167.510,306.182 165.200 C 306.786 162.890,307.428 160.819,307.608 160.598 C 307.787 160.378,308.428 158.308,309.032 155.998 C 309.635 153.689,310.266 151.708,310.435 151.595 C 310.603 151.482,311.159 149.772,311.671 147.795 C 312.182 145.818,312.711 144.110,312.847 144.000 C 313.153 143.752,315.200 136.670,315.200 135.858 C 315.200 135.533,315.368 135.207,315.574 135.133 C 317.154 134.570,317.855 126.183,316.505 124.000 C 314.936 121.463,275.388 82.495,274.100 82.217 C 273.385 82.063,272.800 81.771,272.800 81.568 C 272.800 81.366,271.900 81.200,270.800 81.200 C 269.700 81.200,268.800 81.354,268.800 81.543 C 268.800 81.732,266.955 82.381,264.700 82.986 C 262.445 83.591,260.510 84.214,260.400 84.370 C 260.290 84.526,258.310 85.156,256.000 85.770 C 253.690 86.384,251.710 87.020,251.600 87.183 C 251.490 87.346,249.780 87.893,247.800 88.400 C 245.820 88.907,244.110 89.452,244.000 89.612 C 243.890 89.771,242.000 90.408,239.800 91.026 C 237.600 91.644,235.740 92.296,235.667 92.475 C 235.593 92.654,235.267 92.800,234.942 92.800 C 234.038 92.800,227.027 94.866,226.800 95.199 C 226.690 95.360,224.665 95.994,222.300 96.607 C 219.935 97.219,218.000 97.874,218.000 98.060 C 218.000 98.247,217.747 98.400,217.438 98.400 C 216.508 98.400,211.330 100.253,210.601 100.847 C 210.227 101.151,207.774 103.515,205.148 106.100 C 202.523 108.685,200.211 110.800,200.009 110.800 C 199.808 110.800,197.229 108.395,194.278 105.456 C 190.784 101.976,188.231 99.779,186.956 99.157 C 185.880 98.631,184.909 98.080,184.797 97.933 C 184.685 97.786,182.705 97.165,180.397 96.553 C 178.089 95.941,176.110 95.320,176.000 95.173 C 175.757 94.848,168.701 92.800,167.825 92.800 C 167.481 92.800,167.200 92.660,167.200 92.489 C 167.200 92.318,165.310 91.661,163.000 91.028 C 160.690 90.396,158.800 89.726,158.800 89.539 C 158.800 89.353,158.514 89.200,158.165 89.200 C 157.257 89.200,151.439 87.497,151.200 87.161 C 151.090 87.007,149.116 86.404,146.812 85.822 C 144.509 85.240,142.529 84.618,142.412 84.440 C 142.296 84.261,140.380 83.638,138.155 83.054 C 135.930 82.471,133.535 81.707,132.834 81.357 C 131.220 80.552,127.358 80.277,125.843 80.860 M157.576 90.244 C 172.412 94.957,185.372 99.286,186.376 99.864 C 188.297 100.971,199.200 111.454,199.200 112.194 C 199.200 112.431,195.417 116.393,190.792 120.998 L 182.385 129.371 178.092 125.137 L 173.800 120.903 154.000 114.246 C 143.110 110.585,133.929 107.592,133.598 107.595 C 133.266 107.598,127.517 113.080,120.822 119.778 L 108.649 131.956 109.869 135.878 C 110.540 138.035,113.283 146.640,115.965 155.000 C 118.647 163.360,121.031 170.830,121.263 171.600 C 121.590 172.684,130.454 181.779,160.540 211.900 L 199.394 250.799 190.799 259.401 L 182.204 268.003 142.497 228.301 C 97.391 183.203,101.913 188.494,97.971 176.200 C 81.351 124.373,82.069 126.974,83.572 124.084 C 84.794 121.734,124.734 82.107,126.200 81.790 C 126.860 81.647,127.580 81.468,127.800 81.392 C 128.633 81.106,131.302 81.899,157.576 90.244 M134.867 108.725 C 134.940 108.904,136.800 109.556,139.000 110.174 C 141.200 110.792,143.090 111.423,143.200 111.576 C 143.310 111.729,145.200 112.359,147.400 112.976 C 149.600 113.593,151.490 114.223,151.600 114.376 C 151.710 114.529,153.600 115.159,155.800 115.776 C 158.000 116.393,159.890 117.023,160.000 117.175 C 160.110 117.328,161.730 117.879,163.600 118.400 C 165.470 118.921,167.090 119.470,167.200 119.620 C 167.310 119.771,168.480 120.198,169.800 120.570 C 171.120 120.941,172.495 121.331,172.856 121.435 C 173.564 121.641,181.200 129.158,181.200 129.650 C 181.200 129.814,169.803 141.347,155.873 155.278 L 130.546 180.609 126.773 176.692 C 124.698 174.537,122.811 172.555,122.579 172.287 C 122.347 172.019,121.650 170.000,121.030 167.800 C 120.410 165.600,119.767 163.710,119.602 163.600 C 119.437 163.490,118.905 161.782,118.420 159.805 C 117.935 157.827,117.403 156.117,117.237 156.005 C 117.071 155.892,116.418 153.910,115.785 151.600 C 115.152 149.290,114.522 147.310,114.384 147.200 C 114.247 147.090,113.624 145.110,113.000 142.800 C 112.376 140.490,111.740 138.510,111.586 138.400 C 111.279 138.181,110.138 134.361,109.930 132.858 C 109.643 130.784,134.176 107.042,134.867 108.725 M278.384 120.544 L 290.323 132.473 289.563 135.128 C 289.146 136.589,288.550 138.328,288.240 138.992 C 287.930 139.656,287.271 141.730,286.775 143.600 C 286.279 145.470,285.744 147.090,285.586 147.200 C 285.427 147.310,284.793 149.200,284.176 151.400 C 283.559 153.600,282.928 155.490,282.774 155.600 C 282.619 155.710,282.091 157.240,281.600 159.000 C 281.109 160.760,280.578 162.290,280.421 162.400 C 280.264 162.510,279.624 164.445,278.999 166.700 C 278.374 168.955,277.736 170.800,277.582 170.800 C 277.427 170.800,277.196 171.320,277.069 171.957 C 276.875 172.925,270.111 180.400,269.429 180.400 C 269.253 180.400,220.445 131.646,219.098 130.125 C 217.797 128.656,224.975 121.914,229.097 120.732 C 230.804 120.243,232.290 119.717,232.400 119.562 C 232.510 119.408,234.085 118.875,235.900 118.378 C 237.715 117.881,239.200 117.323,239.200 117.137 C 239.200 116.952,239.508 116.800,239.884 116.800 C 240.868 116.800,248.161 114.711,248.404 114.359 C 248.516 114.197,250.496 113.571,252.804 112.968 C 255.112 112.365,257.090 111.751,257.200 111.604 C 257.310 111.456,259.245 110.824,261.500 110.199 C 263.755 109.574,265.600 108.899,265.600 108.698 C 265.600 107.870,266.969 109.139,278.384 120.544 M257.246 169.900 C 295.975 208.687,297.116 209.873,298.140 212.400 C 298.995 214.513,308.592 244.360,315.083 265.099 C 317.482 272.763,319.444 269.888,295.271 294.127 C 273.667 315.790,273.422 316.009,270.683 316.064 C 268.972 316.098,217.511 300.055,213.600 298.268 C 211.780 297.437,200.400 286.709,200.400 285.825 C 200.400 285.588,204.175 281.621,208.790 277.010 L 217.179 268.628 221.332 272.714 C 223.615 274.961,225.583 276.800,225.703 276.800 C 225.824 276.800,234.701 279.770,245.430 283.400 C 256.160 287.030,265.223 290.000,265.572 290.000 C 265.920 290.000,271.684 284.519,278.380 277.820 L 290.555 265.640 284.041 245.120 L 277.527 224.600 238.963 185.999 C 217.754 164.769,200.400 147.220,200.400 147.003 C 200.400 146.607,216.809 130.000,217.199 130.000 C 217.313 130.000,235.334 147.955,257.246 169.900 M225.395 173.572 C 239.368 187.527,250.800 198.992,250.800 199.049 C 250.800 199.349,200.303 249.600,200.002 249.600 C 199.806 249.600,188.218 238.174,174.251 224.208 L 148.855 198.817 174.281 173.396 C 188.266 159.414,199.771 148.025,199.849 148.087 C 199.926 148.149,211.422 159.617,225.395 173.572 M155.791 242.778 C 169.766 256.736,181.200 268.294,181.200 268.463 C 181.200 268.631,179.625 270.356,177.700 272.296 C 174.340 275.683,173.228 276.420,170.604 276.999 C 169.946 277.145,169.316 277.396,169.204 277.559 C 169.092 277.722,167.200 278.350,165.000 278.956 C 162.800 279.562,160.460 280.291,159.800 280.577 C 159.140 280.863,157.385 281.417,155.900 281.808 C 154.415 282.199,153.200 282.672,153.200 282.859 C 153.200 283.047,152.919 283.200,152.575 283.200 C 151.724 283.200,144.698 285.220,144.200 285.608 C 143.980 285.779,141.910 286.414,139.600 287.018 C 137.290 287.622,135.308 288.255,135.196 288.426 C 133.991 290.261,133.295 289.721,121.025 277.428 C 114.521 270.913,109.200 265.305,109.200 264.966 C 109.200 264.067,111.256 257.035,111.588 256.800 C 111.743 256.690,111.975 256.240,112.102 255.800 C 112.230 255.360,112.721 253.653,113.194 252.007 C 113.667 250.360,114.190 248.920,114.355 248.807 C 114.520 248.693,115.159 246.800,115.776 244.600 C 116.393 242.400,117.023 240.510,117.175 240.400 C 117.328 240.290,117.879 238.670,118.400 236.800 C 118.921 234.930,119.470 233.310,119.621 233.200 C 119.771 233.090,120.362 231.366,120.935 229.368 L 121.975 225.736 126.088 221.540 C 128.349 219.233,130.241 217.357,130.291 217.372 C 130.342 217.388,141.817 228.820,155.791 242.778 M272.759 220.889 C 275.504 223.657,276.525 224.981,276.850 226.189 C 277.088 227.075,277.409 227.890,277.563 228.000 C 277.859 228.212,279.600 234.011,279.600 234.787 C 279.600 235.038,279.935 235.999,280.345 236.922 C 280.755 237.845,281.412 239.815,281.805 241.300 C 282.197 242.785,282.672 244.000,282.859 244.000 C 283.047 244.000,283.200 244.281,283.200 244.625 C 283.200 245.559,285.260 252.569,285.603 252.800 C 285.766 252.910,286.029 253.630,286.186 254.400 C 286.694 256.875,288.148 261.794,288.434 262.000 C 288.586 262.110,288.908 262.917,289.149 263.793 C 289.648 265.607,289.967 265.198,281.853 273.138 C 279.682 275.262,277.702 277.210,277.453 277.466 C 265.962 289.290,264.526 290.392,263.200 288.399 C 263.090 288.233,261.200 287.593,259.000 286.976 C 256.800 286.359,254.910 285.729,254.800 285.576 C 254.690 285.423,252.800 284.793,250.600 284.176 C 248.400 283.559,246.510 282.926,246.400 282.768 C 246.290 282.611,244.670 282.068,242.800 281.563 C 240.930 281.057,239.310 280.531,239.200 280.394 C 239.090 280.256,237.650 279.725,236.000 279.212 C 234.350 278.699,232.270 277.958,231.377 277.565 C 230.485 277.172,228.868 276.627,227.785 276.355 C 225.721 275.835,218.169 268.909,218.512 267.850 C 218.674 267.351,268.451 217.306,268.851 217.241 C 268.989 217.218,270.748 218.860,272.759 220.889 " stroke="none" fill="#a4acac" fill-rule="evenodd"></path><path id="path1" d="M127.800 81.392 C 127.580 81.468,126.860 81.647,126.200 81.790 C 124.734 82.107,84.794 121.734,83.572 124.084 C 82.069 126.974,81.351 124.373,97.971 176.200 C 101.913 188.494,97.391 183.203,142.497 228.301 L 182.204 268.003 190.799 259.401 L 199.394 250.799 160.540 211.900 C 130.454 181.779,121.590 172.684,121.263 171.600 C 121.031 170.830,118.647 163.360,115.965 155.000 C 113.283 146.640,110.540 138.035,109.869 135.878 L 108.649 131.956 120.822 119.778 C 127.517 113.080,133.266 107.598,133.598 107.595 C 133.929 107.592,143.110 110.585,154.000 114.246 L 173.800 120.903 178.092 125.137 L 182.385 129.371 190.792 120.998 C 195.417 116.393,199.200 112.431,199.200 112.194 C 199.200 111.454,188.297 100.971,186.376 99.864 C 184.723 98.912,132.244 81.965,129.400 81.465 C 128.740 81.349,128.020 81.317,127.800 81.392 M208.696 138.303 C 204.133 142.870,200.400 146.785,200.400 147.003 C 200.400 147.220,217.754 164.769,238.963 185.999 L 277.527 224.600 284.041 245.120 L 290.555 265.640 278.380 277.820 C 271.684 284.519,265.920 290.000,265.572 290.000 C 265.223 290.000,256.160 287.030,245.430 283.400 C 234.701 279.770,225.824 276.800,225.703 276.800 C 225.583 276.800,223.615 274.961,221.332 272.714 L 217.179 268.628 208.790 277.010 C 204.175 281.621,200.400 285.588,200.400 285.825 C 200.400 286.709,211.780 297.437,213.600 298.268 C 217.511 300.055,268.972 316.098,270.683 316.064 C 273.422 316.009,273.667 315.790,295.271 294.127 C 319.444 269.888,317.482 272.763,315.083 265.099 C 308.592 244.360,298.995 214.513,298.140 212.400 C 297.116 209.873,295.975 208.687,257.246 169.900 C 235.334 147.955,217.313 130.000,217.199 130.000 C 217.086 130.000,213.259 133.737,208.696 138.303 " stroke="none" fill="#14ac9c" fill-rule="evenodd"></path></g></svg>